<svg xmlns="http://www.w3.org/2000/svg" viewBox="0 0 60 68" width="32" height="32">
  <polygon points="18,0 42,0 54,18 6,18" fill="#1a73e8" />
  <polygon points="6,18 18,0 4,20" fill="#0d47a1" opacity="0.7" />
  <polygon points="54,18 42,0 56,20" fill="#1565c0" opacity="0.7" />
  <polygon points="0,22 6,18 30,30 6,26" fill="#42a5f5" />
  <polygon points="60,22 54,18 30,30 54,26" fill="#1976d2" />
  <polygon points="6,18 54,18 30,30" fill="#2196f3" />
  <polygon points="0,22 6,26 30,68" fill="#1565c0" />
  <polygon points="60,22 54,26 30,68" fill="#0d47a1" />
  <polygon points="6,26 54,26 30,68" fill="#1a73e8" />
  <polygon points="18,0 30,10 30,30 6,18" fill="white" opacity="0.13" />
</svg>